# xmcd
#
# Track frame offsets:
# 150
# 14033
# 28355
# 41818
# 55153
# 69550
# 82400
# 95205
# 109473
# 122940
# 134955
# 148073
# 160935
# 173255
#
# Disc length: 2468 seconds
#
#
# Revision: 2
# Processed by: cddbd v1.5.2PL0 Copyright (c) Steve Scherf et al.
# Submitted via: FreeRIP 2.945 
#
DISCID=e109a20e
DTITLE=Various Artist - A Decade of Guitar - Piano Duets 1927-1937
DYEAR=1992
DGENRE=Blues
TTITLE0=Mountain Blues (Big Bill Broonzy)
TTITLE1=Policy Blues (Cripple Clarence Lofton)
TTITLE2=When You Left (Bo Carter)
TTITLE3=Papa's On The Housetop (Leroy Carr and Scrapper Blackwell)
TTITLE4=Ain't Gonna Stand For That (Charley Spand)
TTITLE5=He Fans Me (Leola Manning)
TTITLE6=Good Feeling Blues (Rufus Quillian and James McCravy)
TTITLE7=You Do It (Down Home Boys)
TTITLE8=Goin' Away Blues (Charlie Campbell)
TTITLE9=My Laona Blues (Teddy Darby)
TTITLE10=Sweet Miss Stella Blues (Quillian/McCravy)
TTITLE11=Uptown Blues (Mack Rhinehart and Brownie Stubblefield)
TTITLE12=What Makes A Tom Cat Blue? (Willie Harris)
TTITLE13=Barbecue Blues (Watson's Pullman Porters
EXTD=
EXTT0=
EXTT1=
EXTT2=
EXTT3=
EXTT4=
EXTT5=
EXTT6=
EXTT7=
EXTT8=
EXTT9=
EXTT10=
EXTT11=
EXTT12=
EXTT13=
PLAYORDER=
